<!-- Generator: Adobe Illustrator 19.1.0, SVG Export Plug-In  -->
<svg version="1.1"
	 xmlns="http://www.w3.org/2000/svg" xmlns:xlink="http://www.w3.org/1999/xlink" xmlns:a="http://ns.adobe.com/AdobeSVGViewerExtensions/3.0/"
	 x="0px" y="0px" width="200px" height="141.2px" viewBox="0 0 200 141.2" style="enable-background:new 0 0 200 141.2;"
	 xml:space="preserve">
<style type="text/css">
	.st0{fill-rule:evenodd;clip-rule:evenodd;fill:#FF4647;}
</style>
<defs>
</defs>
<path class="st0" d="M171.8,7.1c1.8,0.2,3.3,0.8,4.5,1.7c3.2-1,5.4-2.4,7.4-4.2c1.1-0.9,1.2-0.6,0.7,0.4c-1.3,2.5-3.1,4.6-6,6.4
	c0.4,0.7,0.7,1.4,1,2.3c4.8,2.6,8,7.8,8.3,13.3c2.8,3.5,5,7.2,8.1,10.7c5.2,2.9,5.8,11.2,0.5,12.8c-1.4,1.9-3,2.6-5.6,2.4
	c-6.3-0.8-6.6,0.5-12.5,2.1c-2.7,0.7-5.3,1.1-8.1,0.7c-1.7,3.6-3.9,5.3-7.4,6.9c-1.6,6.4-7.2,13.7-12.6,16.9
	c-0.5,0.3-0.8,0.5-0.8,0.5c0,0,0,0-0.1,0c-2.3,4.6-5.7,7.7-10.1,10c-0.2,7.1-0.8,13.4-2.9,20.5c0.1,5.1,1,10.7,2.5,16.1
	c1.3,1.6,10.7,11.1,5.8,11.6c-1.8,0.2-5.3,0.2-6.9-0.2c-4-1-5.1-2.9-5.8-6.2c-1.2,0-2.1-1-2.2-2.7c-0.4-9.8-1-14.4-2.1-19
	c-0.4,1.5-0.8,3-1.3,4.5c-0.3,5-0.2,9.3,0,14.3c0,0.2,0,0.3,0,0.5c0.5,0.6,1.2,1.5,2,2.4c0.5,0.6,1,1.3,1.5,2.1
	c0.5,0.8,1,1.6,1.5,2.6c0.3,0.7,0.7,1.8,0.6,2.6c0,0.4-0.2,0.8-0.5,1.1c-0.1,0.2-0.3,0.3-0.5,0.4c-1.8,0.8-6.2,0.5-8,0
	c-0.2-0.1-0.5-0.1-0.7-0.2c-0.3-0.1-0.5-0.2-0.8-0.3c-1-0.4-1.9-1-2.6-1.8c-0.7-0.7-1.2-1.6-1.4-2.4c-0.4-1.2-0.4-2.9-0.1-4.1
	c0-0.1,0-0.2,0.1-0.2c-0.5,0.1-0.9-0.1-1.3-0.4c-0.4-0.3-0.6-0.8-0.7-1.2c-0.1-0.4-0.1-0.8-0.1-1.2c0-0.4,0.1-0.8,0.1-1.2
	c0.9-6,0.9-10.9,0.2-17c-1.3-5.6-1.9-10.5-2.3-16.7c-5.6,0.6-11.4,0.8-17.1,0.2c-4.2-0.4-13.2-3.3-16.5,0.1c-0.2,1-0.1,1.7,0.2,2.6
	c0.1,0.3-0.1,0.6-0.4,0.7c-0.1,0-0.2,0-0.3,0c-0.8-0.3-1.6-0.5-2.3-0.9c-0.7-0.4-1.4-0.9-2.1-1.3c-0.6-0.5-1.3-0.9-1.9-1.4
	c-4.4-3.1-13.5-3.9-18-4.6c-3.2-0.5-5.9-1-8.8-1.8c-4,8.6-8.2,10.2-9.4,16.8c-1.3,6.7,2.1,14.1,5.2,19.9c1.7,1.9,9.4,9.3,8.8,12.2
	c-0.4,1.7-5.7,1.5-7.1,1.5c-4.7,0-7.8-1.5-8-8.7c-1.5,0.6-2.6-0.1-3.3-2.3c-1.1-3.4-1.4-4.8-2.7-8.3c-2.7-7.5-5.2-11.5-6.7-19.5
	c-5,7.1-4.7,14.4-3.9,22.5c0.3,2.4,0.6,5.5,1,8c1.6,1.9,3.9,4.5,4.8,6.8c0.8,2.4-0.1,3.8-2.6,4.3c-1.5,0.2-3.4,0.2-4.9,0
	c-1.1-0.1-2.1-0.3-3.2-0.6c-0.5-0.2-1-0.4-1.5-0.7c-0.5-0.3-0.9-0.7-1.2-1.3c-0.7-1.2-1-5.3-1.1-6.5c0,0,0,0,0,0
	c-0.5,0.4-1.2,0.5-1.7-0.1c-0.3-0.3-0.4-0.6-0.5-0.9c-0.2-0.7-0.2-1.3-0.2-2c0.4-12.8-1.6-19.8-3-31.8c-0.1-0.8-0.1-1.7,0-2.5
	c-0.2,0.1-0.5,0.2-0.6,0.3c0.3-0.4,0.5-0.8,0.6-1.2c-1.1,1.1-2.8,2-4.9,1.7c0.8-0.2,2.2-0.9,2.9-1.6c-0.4,0.1-1.1,0.2-1.4,0.1
	c5.4-2.7,4.3-9.5,5.3-14.2c0.7-3.6,1.8-6.5,4.6-6.9c0.7-6.3-0.2-13-1.1-19.4c-1.1-8.6-2.4-15.7,0.5-21.3c1.4-2.6,4.3-5.5,7.3-6.8
	c0,0,0.1-0.1,0.1-0.1c5.8-6.1,20.1-6.5,33.1-5.2c6.7,0.6,15.5,1.6,21.9,3.3c11.3,0.4,21.9-0.4,33.2-2.3c12.1-1.8,21.7-3.3,33.4-3.1
	c2.1-1.2,13.5-4,18.4-4.1c0,0,0.1,0,0.1,0c-0.1-0.7-0.1-1.3,0.1-2c0.6-2,2.6-2.8,4.4-3.6c2.7-1.2,9.4-5,11.1-7.4
	c0.2-0.3,0.5-0.4,0.8-0.4c0.4,0.1,0.7,0.5,0.6,0.9c-0.2,1.2-0.6,2.2-1.2,3.2C173.4,5.3,172.7,6.3,171.8,7.1L171.8,7.1z M13.2,72.7
	c1,0.8,1.5,1.9,1.7,3c1.1-8.5-0.9-14.9-2.7-21.9C13.1,60,13.9,66.5,13.2,72.7z"/>
</svg>